<svg version="1.1" xmlns="http://www.w3.org/2000/svg" xmlns:xlink="http://www.w3.org/1999/xlink" width="512.000000pt" height="512.000000pt" viewBox="0,0,256,256"><g fill="#b71c1c" fill-rule="nonzero" stroke="none" stroke-width="1" stroke-linecap="butt" stroke-linejoin="miter" stroke-miterlimit="10" stroke-dasharray="" stroke-dashoffset="0" font-family="none" font-weight="none" font-size="none" text-anchor="none" style="mix-blend-mode: normal"><g transform="translate(0,0.0875) scale(0.5,0.5)"><g transform="translate(0,512) scale(0.1,-0.1)"><path d="M3827,3911c-20,-44 -38,-81 -41,-81c-2,0 -39,19 -81,41c-123,66 -153,73 -244,49c-103,-26 -143,-44 -187,-82c-34,-30 -36,-35 -30,-76c12,-88 29,-102 193,-161c191,-68 397,-168 445,-215c72,-70 58,-124 -40,-152c-34,-10 -65,-26 -77,-41c-17,-21 -27,-24 -68,-21l-48,3l-86,195c-47,107 -87,196 -88,198c-5,6 -169,-59 -211,-83c-42,-24 -44,-29 -39,-59l7,-32l-89,42c-419,203 -862,124 -1218,-217c-70,-66 -72,-67 -139,-74c-130,-14 -271,-1 -374,34c-52,17 -115,43 -140,58c-76,43 -181,131 -226,189c-24,32 -58,62 -81,73c-98,46 -314,71 -608,71h-171l28,-29l27,-29l-38,-18c-29,-15 -38,-25 -38,-44c0,-33 36,-50 128,-57l72,-6l85,-84c227,-225 446,-358 610,-371c58,-4 90,-17 300,-121l235,-116l102,-175c80,-136 103,-183 103,-212c0,-40 3,-39 -93,-59c-65,-14 -67,-13 -91,51c-49,128 -188,293 -317,376c-269,174 -613,179 -897,12c-85,-50 -239,-208 -289,-298c-149,-267 -149,-573 0,-840c58,-103 196,-242 302,-304c265,-154 576,-154 853,0c90,50 256,216 300,302c18,34 37,62 43,62c5,0 50,-31 99,-70l90,-70h597c540,0 905,10 945,25c13,5 11,18 -8,91c-66,246 -53,456 34,575c32,42 110,114 117,107c2,-2 -5,-33 -17,-68c-19,-55 -22,-89 -22,-225c-1,-141 2,-169 22,-234c76,-241 232,-425 447,-527c141,-67 196,-78 370,-78c141,0 156,2 245,32c52,17 131,52 175,78c106,62 244,201 302,304c149,267 149,573 0,840c-50,90 -204,248 -289,298c-125,74 -285,122 -405,122h-58l48,32l48,31l-26,27c-31,33 -31,36 3,45c40,9 99,51 107,75c4,13 -2,37 -15,63c-25,47 -177,251 -352,470c-96,120 -117,153 -113,172c3,14 7,36 10,49c10,50 -15,124 -59,172l-42,47zM985,2535c105,-28 184,-74 265,-155c71,-70 143,-180 128,-195c-3,-4 -140,-35 -303,-70c-163,-34 -298,-65 -301,-67c-4,-5 31,-206 38,-213c4,-4 293,7 506,20c108,6 107,10 62,-101c-153,-383 -651,-488 -944,-199c-104,102 -162,227 -173,371c-20,279 153,528 422,605c77,22 222,24 300,4zM4424,2535c160,-42 304,-160 374,-306c47,-98 62,-162 62,-262c0,-261 -190,-502 -441,-562c-205,-48 -401,7 -550,156c-117,116 -172,246 -172,409c0,147 53,286 148,388c119,129 258,191 425,192c54,0 121,-7 154,-15zM1871,1833c11,-27 28,-56 36,-65c15,-17 11,-18 -68,-18c-46,0 -107,-3 -136,-6l-52,-7l9,39c5,22 11,51 15,66c5,25 9,27 63,31c31,2 70,4 85,5c24,2 30,-4 48,-45z"></path></g></g></g></svg>